<svg width="1280" height="720" xmlns="http://www.w3.org/2000/svg">
  <!-- Background with subtle gradient -->
  <defs>
    <linearGradient id="bgGradient" x1="0%" y1="0%" x2="100%" y2="100%">
      <stop offset="0%" style="stop-color:#ffffff;stop-opacity:1" />
      <stop offset="100%" style="stop-color:#f7f9fc;stop-opacity:1" />
    </linearGradient>
    <linearGradient id="accentGradient" x1="0%" y1="0%" x2="100%" y2="0%">
      <stop offset="0%" style="stop-color:#6366f1;stop-opacity:1" />
      <stop offset="100%" style="stop-color:#8b5cf6;stop-opacity:1" />
    </linearGradient>
  </defs>
  
  <!-- Main background -->
  <rect width="1280" height="720" fill="url(#bgGradient)" />
  
  <!-- Header -->
  <text x="120" y="80" font-family="Arial, sans-serif" font-size="32" font-weight="bold" fill="#262626">总结与经验分享</text>
  <rect x="120" y="100" width="140" height="3" fill="url(#accentGradient)" rx="1.5"/>
  
  <!-- Key Takeaways Section -->
  <text x="120" y="150" font-family="Arial, sans-serif" font-size="22" font-weight="bold" fill="#262626">关键要点</text>
  
  <rect x="120" y="170" width="780" height="380" rx="8" fill="white" filter="drop-shadow(0px 1px 2px rgba(0,0,0,0.05))"/>
  
  <!-- Key points with elegant dot indicators -->
  <circle cx="150" cy="210" r="6" fill="#6366f1"/>
  <text x="180" y="215" font-family="Arial, sans-serif" font-size="16" fill="#525252">DeepSeek提供强大的长文本生成能力，适合学术与商业应用</text>
  
  <circle cx="150" cy="260" r="6" fill="#6366f1"/>
  <text x="180" y="265" font-family="Arial, sans-serif" font-size="16" fill="#525252">工程化的API调用流程确保稳定性和可扩展性</text>
  
  <circle cx="150" cy="310" r="6" fill="#6366f1"/>
  <text x="180" y="315" font-family="Arial, sans-serif" font-size="16" fill="#525252">大纲先行策略显著提升长文本的结构性和连贯性</text>
  
  <circle cx="150" cy="360" r="6" fill="#6366f1"/>
  <text x="180" y="365" font-family="Arial, sans-serif" font-size="16" fill="#525252">Roo Code + VSCode组合提供高效的AI辅助开发体验</text>
  
  <circle cx="150" cy="410" r="6" fill="#6366f1"/>
  <text x="180" y="415" font-family="Arial, sans-serif" font-size="16" fill="#525252">明确的指令优化和工作流程提升AI编程质量</text>
  
  <circle cx="150" cy="460" r="6" fill="#6366f1"/>
  <text x="180" y="465" font-family="Arial, sans-serif" font-size="16" fill="#525252">国内外大模型各有优势，可根据具体需求选择</text>
  
  <circle cx="150" cy="510" r="6" fill="#6366f1"/>
  <text x="180" y="515" font-family="Arial, sans-serif" font-size="16" fill="#525252">OpenRouter可用于非敏感内容的多模型性能对比测试</text>
  
  <!-- Future Outlook Section -->
  <text x="120" y="585" font-family="Arial, sans-serif" font-size="22" font-weight="bold" fill="#262626">未来展望</text>
  
  <rect x="120" y="605" width="780" height="95" rx="8" fill="white" filter="drop-shadow(0px 1px 2px rgba(0,0,0,0.05))"/>
  
  <!-- Future outlook with elegant diamond indicators -->
  <rect x="150" y="630" width="8" height="8" rx="1" transform="rotate(45 154 634)" fill="#8b5cf6"/>
  <text x="180" y="635" font-family="Arial, sans-serif" font-size="16" fill="#525252">模型性能将持续提升，特别是在长文本连贯性和专业领域知识方面</text>
  
  <rect x="150" y="670" width="8" height="8" rx="1" transform="rotate(45 154 674)" fill="#8b5cf6"/>
  <text x="180" y="675" font-family="Arial, sans-serif" font-size="16" fill="#525252">AI辅助编程工具将更深入集成到开发流程中，提升代码质量和效率</text>
  
  <!-- Right side visualization panel -->
  <rect x="940" y="170" width="220" height="380" rx="8" fill="white" filter="drop-shadow(0px 1px 2px rgba(0,0,0,0.05))"/>
  
  <!-- Elegant visualization of development trend -->
  <rect x="960" y="190" width="180" height="300" rx="6" fill="#f5f3ff"/>
  
  <!-- Chart title -->
  <text x="1050" y="215" font-family="Arial, sans-serif" font-size="14" font-weight="bold" text-anchor="middle" fill="#6366f1">AI模型应用发展趋势</text>
  
  <!-- Axis labels -->
  <text x="970" y="470" font-family="Arial, sans-serif" font-size="10" fill="#6b7280">2024</text>
  <text x="1130" y="470" font-family="Arial, sans-serif" font-size="10" fill="#6b7280">2025+</text>
  
  <!-- Chart lines with gradient strokes -->
  <path d="M970,440 C1000,400 1030,380 1060,330 S1090,290 1120,240" 
       fill="none" stroke="url(#accentGradient)" stroke-width="2.5" stroke-linecap="round"/>
  
  <path d="M970,410 C1000,390 1030,370 1060,345 S1090,325 1120,290" 
       fill="none" stroke="#8b5cf6" stroke-width="2" opacity="0.5" stroke-linecap="round"/>
  
  <!-- Legend -->
  <circle cx="980" y="500" r="4" fill="#6366f1"/>
  <text x="995" y="504" font-family="Arial, sans-serif" font-size="10" fill="#6b7280">生成能力</text>
  
  <circle cx="1070" y="500" r="4" fill="#8b5cf6"/>
  <text x="1085" y="504" font-family="Arial, sans-serif" font-size="10" fill="#6b7280">开发工具</text>
  
  <!-- Second panel for future trends -->
  <rect x="940" y="605" width="220" height="95" rx="8" fill="white" filter="drop-shadow(0px 1px 2px rgba(0,0,0,0.05))"/>
  
  <!-- Simple icons for trends -->
  <circle cx="990" y="635" r="15" fill="#6366f1" opacity="0.1"/>
  <text x="990" y="639" font-family="Arial, sans-serif" font-size="14" font-weight="bold" text-anchor="middle" fill="#6366f1">↗</text>
  <text x="1020" y="639" font-family="Arial, sans-serif" font-size="12" fill="#525252">性能提升</text>
  
  <circle cx="990" y="670" r="15" fill="#8b5cf6" opacity="0.1"/>
  <text x="990" y="674" font-family="Arial, sans-serif" font-size="14" font-weight="bold" text-anchor="middle" fill="#8b5cf6">⚙</text>
  <text x="1020" y="674" font-family="Arial, sans-serif" font-size="12" fill="#525252">工具集成</text>
  
  <!-- Subtle footer -->
  <rect x="0" y="700" width="1280" height="20" fill="#6366f1" opacity="0.03"/>
</svg>
