<svg xmlns="http://www.w3.org/2000/svg" viewBox="0 0 800 570">
  <!-- 背景和标题 -->
  <rect width="800" height="570" fill="#f8f9fa" />
  <text x="400" y="40" font-family="Arial" font-size="20" font-weight="bold" text-anchor="middle" fill="#333">AI编程助手功能对比</text>
  
  <!-- 表格标题行 -->
  <rect x="50" y="60" width="150" height="50" fill="#4285f4" opacity="0.8" />
  <text x="125" y="90" font-family="Arial" font-size="14" fill="white" text-anchor="middle">功能/工具</text>
  
  <rect x="200" y="60" width="120" height="50" fill="#4285f4" opacity="0.8" />
  <text x="260" y="90" font-family="Arial" font-size="14" fill="white" text-anchor="middle">GitHub Copilot</text>
  
  <rect x="320" y="60" width="120" height="50" fill="#4285f4" opacity="0.8" />
  <text x="380" y="90" font-family="Arial" font-size="14" fill="white" text-anchor="middle">Cursor</text>
  
  <rect x="440" y="60" width="120" height="50" fill="#4285f4" opacity="0.8" />
  <text x="500" y="90" font-family="Arial" font-size="14" fill="white" text-anchor="middle">Roo Code</text>
  
  <rect x="560" y="60" width="120" height="50" fill="#4285f4" opacity="0.8" />
  <text x="620" y="90" font-family="Arial" font-size="14" fill="white" text-anchor="middle">Trae</text>
  
  <!-- 表格内容行 - 集成方式 -->
  <rect x="50" y="110" width="150" height="40" fill="#e8eaed" />
  <text x="125" y="135" font-family="Arial" font-size="12" fill="#333" text-anchor="middle">集成方式</text>
  
  <rect x="200" y="110" width="120" height="40" fill="white" stroke="#ccc" />
  <text x="260" y="135" font-family="Arial" font-size="12" fill="#333" text-anchor="middle">VSCode插件</text>
  
  <rect x="320" y="110" width="120" height="40" fill="white" stroke="#ccc" />
  <text x="380" y="135" font-family="Arial" font-size="12" fill="#333" text-anchor="middle">独立编辑器</text>
  
  <rect x="440" y="110" width="120" height="40" fill="white" stroke="#ccc" />
  <text x="500" y="135" font-family="Arial" font-size="12" fill="#333" text-anchor="middle">命令行+VSCode</text>
  
  <rect x="560" y="110" width="120" height="40" fill="white" stroke="#ccc" />
  <text x="620" y="135" font-family="Arial" font-size="12" fill="#333" text-anchor="middle">独立编辑器</text>
  
  <!-- 表格内容行 - TAB键代码补全 -->
  <rect x="50" y="150" width="150" height="40" fill="#e8eaed" />
  <text x="125" y="175" font-family="Arial" font-size="12" fill="#333" text-anchor="middle">TAB键代码补全</text>
  
  <rect x="200" y="150" width="120" height="40" fill="white" stroke="#ccc" />
  <circle cx="260" cy="170" r="15" fill="#0f9d58" />
  <text x="260" y="175" font-family="Arial" font-size="14" fill="white" text-anchor="middle">✓</text>
  
  <rect x="320" y="150" width="120" height="40" fill="white" stroke="#ccc" />
  <circle cx="380" cy="170" r="15" fill="#f4b400" />
  <text x="380" y="175" font-family="Arial" font-size="14" fill="white" text-anchor="middle">$</text>
  
  <rect x="440" y="150" width="120" height="40" fill="white" stroke="#ccc" />
  <circle cx="500" cy="170" r="15" fill="#db4437" />
  <text x="500" y="175" font-family="Arial" font-size="14" fill="white" text-anchor="middle">✗</text>
  
  <rect x="560" y="150" width="120" height="40" fill="white" stroke="#ccc" />
  <circle cx="620" cy="170" r="15" fill="#0f9d58" />
  <text x="620" y="175" font-family="Arial" font-size="14" fill="white" text-anchor="middle">✓</text>
  
  <!-- 表格内容行 - 代码解释 -->
  <rect x="50" y="190" width="150" height="40" fill="#e8eaed" />
  <text x="125" y="215" font-family="Arial" font-size="12" fill="#333" text-anchor="middle">代码解释</text>
  
  <rect x="200" y="190" width="120" height="40" fill="white" stroke="#ccc" />
  <circle cx="260" cy="210" r="15" fill="#0f9d58" />
  <text x="260" y="215" font-family="Arial" font-size="14" fill="white" text-anchor="middle">✓</text>
  
  <rect x="320" y="190" width="120" height="40" fill="white" stroke="#ccc" />
  <circle cx="380" cy="210" r="15" fill="#f4b400" />
  <text x="380" y="215" font-family="Arial" font-size="14" fill="white" text-anchor="middle">$</text>
  
  <rect x="440" y="190" width="120" height="40" fill="white" stroke="#ccc" />
  <circle cx="500" cy="210" r="15" fill="#0f9d58" />
  <text x="500" y="215" font-family="Arial" font-size="14" fill="white" text-anchor="middle">✓</text>
  
  <rect x="560" y="190" width="120" height="40" fill="white" stroke="#ccc" />
  <circle cx="620" cy="210" r="15" fill="#0f9d58" />
  <text x="620" y="215" font-family="Arial" font-size="14" fill="white" text-anchor="middle">✓</text>
  
  <!-- 表格内容行 - 整个项目生成 -->
  <rect x="50" y="230" width="150" height="40" fill="#e8eaed" />
  <text x="125" y="255" font-family="Arial" font-size="12" fill="#333" text-anchor="middle">整个项目生成</text>
  
  <rect x="200" y="230" width="120" height="40" fill="white" stroke="#ccc" />
  <circle cx="260" cy="250" r="15" fill="#f4b400" />
  <text x="260" y="255" font-family="Arial" font-size="14" fill="white" text-anchor="middle">~</text>
  
  <rect x="320" y="230" width="120" height="40" fill="white" stroke="#ccc" />
  <circle cx="380" cy="250" r="15" fill="#f4b400" />
  <text x="380" y="255" font-family="Arial" font-size="14" fill="white" text-anchor="middle">$</text>
  
  <rect x="440" y="230" width="120" height="40" fill="white" stroke="#ccc" />
  <circle cx="500" cy="250" r="15" fill="#0f9d58" />
  <text x="500" y="255" font-family="Arial" font-size="14" fill="white" text-anchor="middle">✓</text>
  
  <rect x="560" y="230" width="120" height="40" fill="white" stroke="#ccc" />
  <circle cx="620" cy="250" r="15" fill="#f4b400" />
  <text x="620" y="255" font-family="Arial" font-size="14" fill="white" text-anchor="middle">~</text>
  
  <!-- 表格内容行 - 长文件处理 -->
  <rect x="50" y="270" width="150" height="40" fill="#e8eaed" />
  <text x="125" y="295" font-family="Arial" font-size="12" fill="#333" text-anchor="middle">长文件处理</text>
  
  <rect x="200" y="270" width="120" height="40" fill="white" stroke="#ccc" />
  <circle cx="260" cy="290" r="15" fill="#f4b400" />
  <text x="260" y="295" font-family="Arial" font-size="14" fill="white" text-anchor="middle">~</text>
  
  <rect x="320" y="270" width="120" height="40" fill="white" stroke="#ccc" />
  <circle cx="380" cy="290" r="15" fill="#0f9d58" />
  <text x="380" y="295" font-family="Arial" font-size="14" fill="white" text-anchor="middle">$</text>
  
  <rect x="440" y="270" width="120" height="40" fill="white" stroke="#ccc" />
  <circle cx="500" cy="290" r="15" fill="#f4b400" />
  <text x="500" y="295" font-family="Arial" font-size="14" fill="white" text-anchor="middle">~</text>
  
  <rect x="560" y="270" width="120" height="40" fill="white" stroke="#ccc" />
  <circle cx="620" cy="290" r="15" fill="#0f9d58" />
  <text x="620" y="295" font-family="Arial" font-size="14" fill="white" text-anchor="middle">✓</text>
  
  <!-- 表格内容行 - 项目理解与索引 -->
  <rect x="50" y="310" width="150" height="40" fill="#e8eaed" />
  <text x="125" y="335" font-family="Arial" font-size="12" fill="#333" text-anchor="middle">项目理解与索引</text>
  
  <rect x="200" y="310" width="120" height="40" fill="white" stroke="#ccc" />
  <circle cx="260" cy="330" r="15" fill="#0f9d58" />
  <text x="260" y="335" font-family="Arial" font-size="14" fill="white" text-anchor="middle">✓</text>
  
  <rect x="320" y="310" width="120" height="40" fill="white" stroke="#ccc" />
  <circle cx="380" cy="330" r="15" fill="#0f9d58" />
  <text x="380" y="335" font-family="Arial" font-size="14" fill="white" text-anchor="middle">$</text>
  
  <rect x="440" y="310" width="120" height="40" fill="white" stroke="#ccc" />
  <circle cx="500" cy="330" r="15" fill="#f4b400" />
  <text x="500" y="335" font-family="Arial" font-size="14" fill="white" text-anchor="middle">~</text>
  
  <rect x="560" y="310" width="120" height="40" fill="white" stroke="#ccc" />
  <circle cx="620" cy="330" r="15" fill="#0f9d58" />
  <text x="620" y="335" font-family="Arial" font-size="14" fill="white" text-anchor="middle">✓</text>
  
  <!-- 表格内容行 - 使用成本 -->
  <rect x="50" y="350" width="150" height="40" fill="#e8eaed" />
  <text x="125" y="375" font-family="Arial" font-size="12" fill="#333" text-anchor="middle">使用成本</text>
  
  <rect x="200" y="350" width="120" height="40" fill="white" stroke="#ccc" />
  <text x="260" y="375" font-family="Arial" font-size="11" fill="#333" text-anchor="middle">付费/学生免费</text>
  
  <rect x="320" y="350" width="120" height="40" fill="white" stroke="#ccc" />
  <text x="380" y="375" font-family="Arial" font-size="11" fill="#333" text-anchor="middle">需付费</text>
  
  <rect x="440" y="350" width="120" height="40" fill="white" stroke="#ccc" />
  <text x="500" y="375" font-family="Arial" font-size="11" fill="#333" text-anchor="middle">API消耗大</text>
  
  <rect x="560" y="350" width="120" height="40" fill="white" stroke="#ccc" />
  <text x="620" y="375" font-family="Arial" font-size="11" fill="#333" text-anchor="middle">免费</text>
  
  <!-- 表格内容行 - 隐私安全 -->
  <rect x="50" y="390" width="150" height="40" fill="#e8eaed" />
  <text x="125" y="415" font-family="Arial" font-size="12" fill="#333" text-anchor="middle">隐私安全</text>
  
  <rect x="200" y="390" width="120" height="40" fill="white" stroke="#ccc" />
  <circle cx="260" cy="410" r="15" fill="#f4b400" />
  <text x="260" y="415" font-family="Arial" font-size="14" fill="white" text-anchor="middle">~</text>
  
  <rect x="320" y="390" width="120" height="40" fill="white" stroke="#ccc" />
  <circle cx="380" cy="410" r="15" fill="#db4437" />
  <text x="380" y="415" font-family="Arial" font-size="14" fill="white" text-anchor="middle">✗</text>
  
  <rect x="440" y="390" width="120" height="40" fill="white" stroke="#ccc" />
  <circle cx="500" cy="410" r="15" fill="#f4b400" />
  <text x="500" y="415" font-family="Arial" font-size="14" fill="white" text-anchor="middle">~</text>
  
  <rect x="560" y="390" width="120" height="40" fill="white" stroke="#ccc" />
  <circle cx="620" cy="410" r="15" fill="#db4437" />
  <text x="620" y="415" font-family="Arial" font-size="14" fill="white" text-anchor="middle">✗</text>
  
  <!-- 表格内容行 - 模型选择 -->
  <rect x="50" y="430" width="150" height="40" fill="#e8eaed" />
  <text x="125" y="455" font-family="Arial" font-size="12" fill="#333" text-anchor="middle">模型选择</text>
  
  <rect x="200" y="430" width="120" height="40" fill="white" stroke="#ccc" />
  <text x="260" y="455" font-family="Arial" font-size="11" fill="#333" text-anchor="middle">学生可用Cl-3.7</text>
  
  <rect x="320" y="430" width="120" height="40" fill="white" stroke="#ccc" />
  <text x="380" y="455" font-family="Arial" font-size="11" fill="#333" text-anchor="middle">多种模型</text>
  
  <rect x="440" y="430" width="120" height="40" fill="white" stroke="#ccc" />
  <text x="500" y="455" font-family="Arial" font-size="11" fill="#333" text-anchor="middle">可用Copilot模型</text>
  
  <rect x="560" y="430" width="120" height="40" fill="white" stroke="#ccc" />
  <text x="620" y="455" font-family="Arial" font-size="11" fill="#333" text-anchor="middle">DeepSeek/Doubao</text>
  
  <!-- 表格内容行 - 响应速度 -->
  <rect x="50" y="470" width="150" height="40" fill="#e8eaed" />
  <text x="125" y="495" font-family="Arial" font-size="12" fill="#333" text-anchor="middle">响应速度</text>
  
  <rect x="200" y="470" width="120" height="40" fill="white" stroke="#ccc" />
  <circle cx="260" cy="490" r="15" fill="#0f9d58" />
  <text x="260" y="495" font-family="Arial" font-size="14" fill="white" text-anchor="middle">✓</text>
  
  <rect x="320" y="470" width="120" height="40" fill="white" stroke="#ccc" />
  <circle cx="380" cy="490" r="15" fill="#0f9d58" />
  <text x="380" y="495" font-family="Arial" font-size="14" fill="white" text-anchor="middle">✓</text>
  
  <rect x="440" y="470" width="120" height="40" fill="white" stroke="#ccc" />
  <circle cx="500" cy="490" r="15" fill="#db4437" />
  <text x="500" y="495" font-family="Arial" font-size="14" fill="white" text-anchor="middle">✗</text>
  
  <rect x="560" y="470" width="120" height="40" fill="white" stroke="#ccc" />
  <circle cx="620" cy="490" r="15" fill="#f4b400" />
  <text x="620" y="495" font-family="Arial" font-size="14" fill="white" text-anchor="middle">~</text>
  
  <!-- 图例 (增加间距，重新布局) -->
  <text x="60" y="530" font-family="Arial" font-size="12" fill="#333">图例:</text>
  
  <circle cx="120" cy="530" r="10" fill="#0f9d58" />
  <text x="140" y="534" font-family="Arial" font-size="12" fill="#333">优秀</text>
  
  <circle cx="200" cy="530" r="10" fill="#f4b400" />
  <text x="220" y="534" font-family="Arial" font-size="12" fill="#333">中等</text>
  
  <circle cx="280" cy="530" r="10" fill="#db4437" />
  <text x="300" y="534" font-family="Arial" font-size="12" fill="#333">不佳/不支持</text>
  
  <circle cx="400" cy="530" r="10" fill="#f4b400" />
  <text x="400" y="534" font-family="Arial" font-size="14" fill="white" text-anchor="middle">$</text>
  <text x="420" y="534" font-family="Arial" font-size="12" fill="#333">付费功能</text>
  
  <text x="400" y="560" font-family="Arial" font-size="12" fill="#333" font-style="italic">注：此比较基于2024年4月功能情况</text>
</svg>
