<?xml version="1.0" encoding="UTF-8"?>
<svg viewBox="0 0 900 600" xmlns="http://www.w3.org/2000/svg">
  <!-- 背景 -->
  <rect width="900" height="600" fill="white" />
  
  <!-- 标题 -->
  <text x="450" y="40" font-family="Arial, sans-serif" font-size="24" font-weight="bold" text-anchor="middle" fill="#333">AI大模型分类 (2025)</text>
  
  <!-- 主分支 -->
  <line x1="450" y1="60" x2="450" y2="100" stroke="#333" stroke-width="2" />
  
  <!-- 国际模型组 -->
  <rect x="150" y="100" width="250" height="40" rx="5" fill="#4285f4" />
  <text x="275" y="125" font-family="Arial, sans-serif" font-size="16" font-weight="bold" text-anchor="middle" fill="white">国际模型</text>
  <line x1="275" y1="140" x2="275" y2="160" stroke="#4285f4" stroke-width="2" />
  
  <!-- 中国模型组 -->
  <rect x="500" y="100" width="250" height="40" rx="5" fill="#ea4335" />
  <text x="625" y="125" font-family="Arial, sans-serif" font-size="16" font-weight="bold" text-anchor="middle" fill="white">中国模型</text>
  <line x1="625" y1="140" x2="625" y2="160" stroke="#ea4335" stroke-width="2" />
  
  <!-- 国际分支 -->
  <!-- 闭源 -->
  <rect x="150" y="160" width="170" height="35" rx="5" fill="#4285f4" opacity="0.8" />
  <text x="235" y="183" font-family="Arial, sans-serif" font-size="14" font-weight="bold" text-anchor="middle" fill="white">闭源</text>
  <line x1="235" y1="195" x2="235" y2="215" stroke="#4285f4" stroke-width="1.5" />
  
  <!-- 开源 -->
  <rect x="330" y="160" width="170" height="35" rx="5" fill="#4285f4" opacity="0.6" />
  <text x="415" y="183" font-family="Arial, sans-serif" font-size="14" font-weight="bold" text-anchor="middle" fill="white">开源</text>
  <line x1="415" y1="195" x2="415" y2="215" stroke="#4285f4" stroke-width="1.5" />
  
  <!-- 中国分支 -->
  <!-- 闭源 -->
  <rect x="500" y="160" width="170" height="35" rx="5" fill="#ea4335" opacity="0.8" />
  <text x="585" y="183" font-family="Arial, sans-serif" font-size="14" font-weight="bold" text-anchor="middle" fill="white">闭源</text>
  <line x1="585" y1="195" x2="585" y2="215" stroke="#ea4335" stroke-width="1.5" />
  
  <!-- 开源 -->
  <rect x="680" y="160" width="170" height="35" rx="5" fill="#ea4335" opacity="0.6" />
  <text x="765" y="183" font-family="Arial, sans-serif" font-size="14" font-weight="bold" text-anchor="middle" fill="white">开源</text>
  <line x1="765" y1="195" x2="765" y2="215" stroke="#ea4335" stroke-width="1.5" />
  
  <!-- 国际闭源类别 -->
  <rect x="150" y="215" width="170" height="30" rx="3" fill="#4285f4" opacity="0.7" />
  <text x="235" y="235" font-family="Arial, sans-serif" font-size="12" text-anchor="middle" fill="white">文本（含多模态）</text>
  
  <rect x="150" y="250" width="170" height="30" rx="3" fill="#4285f4" opacity="0.7" />
  <text x="235" y="270" font-family="Arial, sans-serif" font-size="12" text-anchor="middle" fill="white">图像</text>
  
  <rect x="150" y="285" width="170" height="30" rx="3" fill="#4285f4" opacity="0.7" />
  <text x="235" y="305" font-family="Arial, sans-serif" font-size="12" text-anchor="middle" fill="white">音乐</text>
  
  <rect x="150" y="320" width="170" height="30" rx="3" fill="#4285f4" opacity="0.7" />
  <text x="235" y="340" font-family="Arial, sans-serif" font-size="12" text-anchor="middle" fill="white">音频</text>
  
  <rect x="150" y="355" width="170" height="30" rx="3" fill="#4285f4" opacity="0.7" />
  <text x="235" y="375" font-family="Arial, sans-serif" font-size="12" text-anchor="middle" fill="white">视频</text>
  
  <!-- 国际开源类别 -->
  <rect x="330" y="215" width="170" height="30" rx="3" fill="#4285f4" opacity="0.5" />
  <text x="415" y="235" font-family="Arial, sans-serif" font-size="12" text-anchor="middle" fill="white">语言</text>
  
  <rect x="330" y="250" width="170" height="30" rx="3" fill="#4285f4" opacity="0.5" />
  <text x="415" y="270" font-family="Arial, sans-serif" font-size="12" text-anchor="middle" fill="white">图像</text>
  
  <!-- 中国闭源类别 -->
  <rect x="500" y="215" width="170" height="30" rx="3" fill="#ea4335" opacity="0.7" />
  <text x="585" y="235" font-family="Arial, sans-serif" font-size="12" text-anchor="middle" fill="white">综合</text>
  
  <rect x="500" y="250" width="170" height="30" rx="3" fill="#ea4335" opacity="0.7" />
  <text x="585" y="270" font-family="Arial, sans-serif" font-size="12" text-anchor="middle" fill="white">视频</text>
  
  <rect x="500" y="285" width="170" height="30" rx="3" fill="#ea4335" opacity="0.7" />
  <text x="585" y="305" font-family="Arial, sans-serif" font-size="12" text-anchor="middle" fill="white">音乐</text>
  
  <rect x="500" y="320" width="170" height="30" rx="3" fill="#ea4335" opacity="0.7" />
  <text x="585" y="340" font-family="Arial, sans-serif" font-size="12" text-anchor="middle" fill="white">音频</text>
  
  <rect x="500" y="355" width="170" height="30" rx="3" fill="#ea4335" opacity="0.7" />
  <text x="585" y="375" font-family="Arial, sans-serif" font-size="12" text-anchor="middle" fill="white">图像</text>
  
  <!-- 中国开源类别 -->
  <rect x="680" y="215" width="170" height="30" rx="3" fill="#ea4335" opacity="0.5" />
  <text x="765" y="235" font-family="Arial, sans-serif" font-size="12" text-anchor="middle" fill="white">综合</text>
  
  <rect x="680" y="250" width="170" height="30" rx="3" fill="#ea4335" opacity="0.5" />
  <text x="765" y="270" font-family="Arial, sans-serif" font-size="12" text-anchor="middle" fill="white">视频</text>
  
  <!-- 模型示例标题 -->
  <text x="150" y="405" font-family="Arial, sans-serif" font-size="14" font-weight="bold" fill="#333">知名模型：</text>
  
  <!-- 国际示例 - 增加间距避免重叠 -->
  <circle cx="160" cy="425" r="5" fill="#4285f4" />
  <text x="170" y="429" font-family="Arial, sans-serif" font-size="11" fill="#333">GPT-4.5、Claude 3.7、Gemini 2.5、Grok 3.0</text>
  
  <circle cx="160" cy="450" r="5" fill="#4285f4" />
  <text x="170" y="454" font-family="Arial, sans-serif" font-size="11" fill="#333">DALL·E 3、Midjourney v7、Imagen 3</text>
  
  <circle cx="160" cy="475" r="5" fill="#4285f4" />
  <text x="170" y="479" font-family="Arial, sans-serif" font-size="11" fill="#333">Sora、Gen-4、Veo（1分钟视频）</text>
  
  <circle cx="160" cy="500" r="5" fill="#4285f4" opacity="0.6" />
  <text x="170" y="504" font-family="Arial, sans-serif" font-size="11" fill="#333">Llama 4、Mistral、Phi-4、Gemma 3</text>
  
  <!-- 中国示例 - 增加间距避免重叠 -->
  <circle cx="500" cy="425" r="5" fill="#ea4335" />
  <text x="510" y="429" font-family="Arial, sans-serif" font-size="11" fill="#333">深度求索3.0、通义千问2.5、智谱GLM-4、Kimi 1.6</text>
  
  <circle cx="500" cy="450" r="5" fill="#ea4335" />
  <text x="510" y="454" font-family="Arial, sans-serif" font-size="11" fill="#333">可灵 - 支持高达3分钟视频</text>
  
  <circle cx="500" cy="475" r="5" fill="#ea4335" opacity="0.6" />
  <text x="510" y="479" font-family="Arial, sans-serif" font-size="11" fill="#333">DeepSeek-R1、QwQ-Max、腾讯混元T1</text>
  
  <!-- 日期和来源 - 调整位置和字体大小 -->
  <text x="450" y="575" font-family="Arial, sans-serif" font-size="10" text-anchor="middle" fill="#666">数据截至2025年4月7日</text>
  <text x="450" y="590" font-family="Arial, sans-serif" font-size="10" text-anchor="middle" fill="#666">来源：吕阿华整理的AI大模型分类</text>
  
  <!-- 图例 - 水平调整以避免重叠 -->
  <rect x="310" y="525" width="15" height="15" fill="#4285f4" />
  <text x="330" y="538" font-family="Arial, sans-serif" font-size="12" fill="#333">国际模型</text>
  
  <rect x="310" y="545" width="15" height="15" fill="#ea4335" />
  <text x="330" y="558" font-family="Arial, sans-serif" font-size="12" fill="#333">中国模型</text>
  
  <rect x="450" y="525" width="15" height="15" opacity="0.8" fill="#333" />
  <text x="470" y="538" font-family="Arial, sans-serif" font-size="12" fill="#333">闭源</text>
  
  <rect x="450" y="545" width="15" height="15" opacity="0.5" fill="#333" />
  <text x="470" y="558" font-family="Arial, sans-serif" font-size="12" fill="#333">开源</text>
</svg>